<svg xmlns="http://www.w3.org/2000/svg" xmlns:xlink="http://www.w3.org/1999/xlink" width="500" zoomAndPan="magnify" viewBox="0 0 375 374.999991" height="500" preserveAspectRatio="xMidYMid meet" version="1.0"><defs><g/><clipPath id="f64accccc6"><path d="M 41.089844 50.230469 L 333.90625 50.230469 L 333.90625 324.769531 L 41.089844 324.769531 Z M 41.089844 50.230469 " clip-rule="nonzero"/></clipPath></defs><g clip-path="url(#f64accccc6)"><path fill="#000000" d="M 41.089844 50.230469 L 333.863281 50.230469 L 333.863281 324.769531 L 41.089844 324.769531 Z M 41.089844 50.230469 " fill-opacity="1" fill-rule="nonzero"/></g><g fill="#ffffff" fill-opacity="1"><g transform="translate(85.114642, 206.134958)"><g><path d="M 23.046875 -8.796875 L 7.890625 -8.796875 L 5.3125 0 L 0.765625 0 L 11.46875 -35.375 L 19.453125 -35.375 L 30.171875 0 L 25.625 0 Z M 15.15625 -33.546875 L 9.046875 -12.734375 L 21.875 -12.734375 L 15.765625 -33.546875 Z M 15.15625 -33.546875 "/></g></g></g><g fill="#ffffff" fill-opacity="1"><g transform="translate(119.880274, 206.134958)"><g><path d="M 4.796875 -35.375 L 26.53125 -35.375 L 26.53125 -31.4375 L 9.046875 -31.4375 L 9.046875 -19.703125 L 26.21875 -19.703125 L 26.21875 -15.765625 L 9.046875 -15.765625 L 9.046875 0 L 4.796875 0 Z M 4.796875 -35.375 "/></g></g></g><g fill="#ffffff" fill-opacity="1"><g transform="translate(154.645906, 206.134958)"><g><path d="M 26.53125 0 L 22.28125 0 L 22.28125 -11.828125 C 22.28125 -12.703125 22.078125 -13.375 21.671875 -13.84375 C 21.273438 -14.3125 20.570312 -14.546875 19.5625 -14.546875 L 8.546875 -14.546875 L 8.546875 0 L 4.296875 0 L 4.296875 -35.375 L 16.921875 -35.375 C 18.742188 -35.375 20.328125 -35.113281 21.671875 -34.59375 C 23.023438 -34.070312 24.144531 -33.367188 25.03125 -32.484375 C 25.925781 -31.609375 26.597656 -30.585938 27.046875 -29.421875 C 27.503906 -28.265625 27.734375 -27.046875 27.734375 -25.765625 L 27.734375 -24.25 C 27.734375 -22.9375 27.367188 -21.625 26.640625 -20.3125 C 25.921875 -19 24.804688 -17.988281 23.296875 -17.28125 L 23.296875 -16.671875 C 24.304688 -16.503906 25.097656 -16.097656 25.671875 -15.453125 C 26.242188 -14.816406 26.53125 -13.910156 26.53125 -12.734375 Z M 8.546875 -18.5 L 16.421875 -18.5 C 18.816406 -18.5 20.59375 -19.007812 21.75 -20.03125 C 22.914062 -21.0625 23.5 -22.570312 23.5 -24.5625 L 23.5 -25.46875 C 23.5 -27.25 22.914062 -28.6875 21.75 -29.78125 C 20.59375 -30.882812 18.816406 -31.4375 16.421875 -31.4375 L 8.546875 -31.4375 Z M 8.546875 -18.5 "/></g></g></g><g fill="#ffffff" fill-opacity="1"><g transform="translate(189.411544, 206.134958)"><g><path d="M 8.546875 -14.546875 L 8.546875 0 L 4.296875 0 L 4.296875 -35.375 L 16.921875 -35.375 C 18.742188 -35.375 20.328125 -35.113281 21.671875 -34.59375 C 23.023438 -34.070312 24.144531 -33.367188 25.03125 -32.484375 C 25.925781 -31.609375 26.597656 -30.585938 27.046875 -29.421875 C 27.503906 -28.265625 27.734375 -27.046875 27.734375 -25.765625 L 27.734375 -24.25 C 27.734375 -22.96875 27.503906 -21.738281 27.046875 -20.5625 C 26.597656 -19.382812 25.921875 -18.347656 25.015625 -17.453125 C 24.109375 -16.566406 22.976562 -15.859375 21.625 -15.328125 C 20.28125 -14.804688 18.710938 -14.546875 16.921875 -14.546875 Z M 8.546875 -18.5 L 16.421875 -18.5 C 21.140625 -18.5 23.5 -20.519531 23.5 -24.5625 L 23.5 -25.46875 C 23.5 -27.25 22.914062 -28.6875 21.75 -29.78125 C 20.59375 -30.882812 18.816406 -31.4375 16.421875 -31.4375 L 8.546875 -31.4375 Z M 8.546875 -18.5 "/></g></g></g><g fill="#ffffff" fill-opacity="1"><g transform="translate(224.177169, 206.134958)"><g><path d="M 15.671875 -3.234375 C 17.117188 -3.234375 18.351562 -3.476562 19.375 -3.96875 C 20.40625 -4.457031 21.25 -5.113281 21.90625 -5.9375 C 22.5625 -6.757812 23.046875 -7.703125 23.359375 -8.765625 C 23.679688 -9.828125 23.84375 -10.945312 23.84375 -12.125 L 23.84375 -12.734375 L 28.09375 -12.734375 L 28.09375 -12.125 C 28.09375 -10.34375 27.820312 -8.664062 27.28125 -7.09375 C 26.75 -5.53125 25.957031 -4.164062 24.90625 -3 C 23.863281 -1.84375 22.566406 -0.9375 21.015625 -0.28125 C 19.472656 0.375 17.691406 0.703125 15.671875 0.703125 C 11.753906 0.703125 8.703125 -0.523438 6.515625 -2.984375 C 4.328125 -5.441406 3.234375 -9.03125 3.234375 -13.75 L 3.234375 -21.625 C 3.234375 -26.207031 4.328125 -29.757812 6.515625 -32.28125 C 8.703125 -34.8125 11.753906 -36.078125 15.671875 -36.078125 C 17.691406 -36.078125 19.472656 -35.75 21.015625 -35.09375 C 22.566406 -34.4375 23.863281 -33.523438 24.90625 -32.359375 C 25.957031 -31.203125 26.75 -29.835938 27.28125 -28.265625 C 27.820312 -26.703125 28.09375 -25.03125 28.09375 -23.25 L 28.09375 -22.640625 L 23.84375 -22.640625 L 23.84375 -23.25 C 23.8125 -24.394531 23.632812 -25.503906 23.3125 -26.578125 C 23 -27.660156 22.515625 -28.613281 21.859375 -29.4375 C 21.203125 -30.257812 20.367188 -30.914062 19.359375 -31.40625 C 18.347656 -31.894531 17.117188 -32.140625 15.671875 -32.140625 C 12.941406 -32.140625 10.894531 -31.144531 9.53125 -29.15625 C 8.164062 -27.164062 7.484375 -24.554688 7.484375 -21.328125 L 7.484375 -14.046875 C 7.484375 -10.578125 8.164062 -7.90625 9.53125 -6.03125 C 10.894531 -4.164062 12.941406 -3.234375 15.671875 -3.234375 Z M 15.671875 -3.234375 "/></g></g></g><g fill="#ffffff" fill-opacity="1"><g transform="translate(258.942795, 206.134958)"><g><path d="M 22.390625 -1.8125 L 22.984375 -1.8125 L 22.984375 -35.375 L 27.234375 -35.375 L 27.234375 0 L 18.75 0 L 8.546875 -33.546875 L 7.9375 -33.546875 L 7.9375 0 L 3.6875 0 L 3.6875 -35.375 L 12.171875 -35.375 Z M 22.390625 -1.8125 "/></g></g></g></svg>