<svg width="28" height="24" viewBox="0 0 28 24" fill="none" xmlns="http://www.w3.org/2000/svg">
<path d="M27.5335 16.4729L22.6725 11.9003V11.8769V11.8534L27.5335 7.2809C27.8281 6.99951 28 6.61261 28 6.21397V1.13727V0.949682V0.820713C27.8772 0.351734 27.4353 0 26.9198 0C26.4042 0 26.4288 0.0820715 26.2446 0.222765H26.2201C26.2201 0.23449 26.1955 0.257939 26.1955 0.257939L26.1464 0.304836L19.4809 6.33122L19.26 0.89106V0.808989L19.2354 0.726918C19.1127 0.293112 18.6953 0 18.2288 0C17.7624 0 17.7624 0.0703472 17.5783 0.211041L17.5414 0.23449L17.5046 0.269663L17.4555 0.316561L0.466462 16.5198C0.171855 16.8129 0 17.1881 0 17.5984V23.0386C0.036826 23.2379 0.135029 23.4255 0.270058 23.5662V23.5896C0.282333 23.5896 0.306883 23.6014 0.306883 23.6014L0.331434 23.6365L0.405086 23.6952C0.601491 23.8476 0.859272 23.9297 1.11705 23.9297C1.37484 23.9297 1.69399 23.8241 1.90268 23.6248L18.904 7.36297V16.3205C18.904 16.7191 19.0758 17.106 19.3704 17.3874L26.1219 23.6717L26.171 23.7186L26.2078 23.7538L26.2324 23.7772C26.4165 23.9179 26.662 24 26.8952 24C27.3985 24 27.8527 23.66 27.9632 23.1793C27.9754 23.1089 27.9877 23.0386 27.9877 22.9682V17.5515C27.9877 17.1529 27.8159 16.766 27.5213 16.4846L27.5335 16.4729ZM18.8426 6.58916L1.46076 23.2145C1.37484 23.2965 1.25208 23.3434 1.11705 23.3434C0.982025 23.3434 0.896098 23.3083 0.810171 23.2379L0.748794 23.1793C0.687418 23.1207 0.650592 23.0386 0.638317 22.9448V17.5984C0.638317 17.3522 0.736519 17.1177 0.920649 16.9419L17.922 0.738642L17.9711 0.691744C18.0447 0.633122 18.1306 0.609673 18.2288 0.609673C18.413 0.609673 18.5726 0.726917 18.6217 0.89106L18.8426 6.57743V6.58916ZM27.3617 22.9682C27.3617 23.0034 27.3617 23.0269 27.3617 23.062C27.3126 23.2614 27.1407 23.4021 26.9198 23.4021C26.6988 23.4021 26.7111 23.3669 26.6374 23.3083L26.5883 23.2614L19.8492 16.977C19.6651 16.8129 19.5669 16.5784 19.5669 16.3439V7.12848L26.6006 0.773815L26.6497 0.726918C26.7234 0.668296 26.8216 0.633122 26.932 0.633122C27.153 0.633122 27.3249 0.773816 27.374 0.973132V6.23742C27.374 6.47191 27.2758 6.7064 27.0916 6.87054L22.2429 11.4431C22.1078 11.5721 22.0465 11.7362 22.0465 11.9003C22.0465 12.0645 22.1078 12.2286 22.2429 12.3576L27.1039 16.9419C27.288 17.106 27.3862 17.3405 27.3862 17.575V22.9917L27.3617 22.9682Z" fill="url(#paint0_linear_3393_536)"/>
<defs>
<linearGradient id="paint0_linear_3393_536" x1="0" y1="12.0059" x2="28" y2="12.0059" gradientUnits="userSpaceOnUse">
<stop stop-color="#00E3E7"/>
<stop offset="1" stop-color="#6000CD"/>
</linearGradient>
</defs>
</svg>
